<svg width="1467" height="1467" viewBox="0 0 1467 1467" fill="none" xmlns="http://www.w3.org/2000/svg">
<rect x="4" y="4" width="1459" height="1459" rx="729.5" fill="white"/>
<g clip-path="url(#clip0)">
<path d="M1051.43 602.167C1049.2 600.018 1048.1 597.396 1048.1 594.279C1048.1 591.162 1049.21 588.507 1051.43 586.313C1053.65 584.107 1056.35 583.016 1059.49 583.016C1062.64 583.016 1065.3 584.118 1067.47 586.313C1069.64 588.518 1070.72 591.174 1070.72 594.279C1070.72 597.396 1069.6 600.018 1067.39 602.167C1065.16 604.316 1062.53 605.385 1059.49 605.385C1056.34 605.385 1053.65 604.316 1051.43 602.167Z" fill="#2A2F3D"/>
<path d="M530.593 698.445C529.614 696.723 528.852 693.347 528.317 688.306C522.673 696.352 513.661 700.38 501.291 700.38C492.063 700.38 484.712 698.175 479.227 693.775C473.742 689.364 471 683.254 471 675.411C471 660.277 481.742 651.635 503.237 649.497L515.936 648.372C520.169 647.832 523.208 646.842 525.051 645.39C526.895 643.939 527.816 641.767 527.816 638.875C527.816 635.331 526.656 632.731 524.323 631.066C521.99 629.401 518.053 628.568 512.511 628.568C506.537 628.568 502.259 629.558 499.653 631.55C497.047 633.53 495.534 636.94 495.09 641.767H474.903C476.098 622.874 488.695 613.434 512.682 613.434C536.021 613.434 547.684 621.749 547.684 638.391V682.669C547.684 689.972 548.822 695.227 551.109 698.445H530.593ZM521.797 680.644C525.814 677.155 527.816 672.137 527.816 665.588V658.026C525.859 659.737 522.661 660.873 518.212 661.402L507.14 662.685C501.712 663.326 497.832 664.587 495.499 666.466C493.167 668.345 491.995 671.057 491.995 674.601C491.995 678.146 493.212 680.902 495.659 682.894C498.105 684.886 501.599 685.876 506.162 685.876C512.58 685.876 517.78 684.132 521.797 680.644Z" fill="#2A2F3D"/>
<path d="M649.459 625.192C656.184 633.136 659.552 643.714 659.552 656.912C659.552 670.01 656.184 680.531 649.459 688.475C642.62 696.419 633.448 700.391 621.944 700.391C610.542 700.391 601.86 696.149 595.897 687.676V730.019H575.369V615.369H595.067V627.285C601.143 618.058 610.098 613.434 621.933 613.434C633.449 613.434 642.62 617.361 649.459 625.192ZM617.051 683.637C623.776 683.637 629.102 681.217 633.005 676.39C636.805 671.664 638.706 664.958 638.706 656.26C638.706 647.776 636.828 641.317 633.084 636.861C629.341 632.405 623.992 630.177 617.051 630.177C610.212 630.177 604.887 632.484 601.097 637.097C597.297 641.711 595.397 648.316 595.397 656.901C595.397 665.599 597.354 672.193 601.257 676.705C604.944 681.33 610.212 683.637 617.051 683.637Z" fill="#2A2F3D"/>
<path d="M754.929 625.192C761.654 633.136 765.022 643.714 765.022 656.912C765.022 670.01 761.654 680.531 754.929 688.475C748.09 696.419 738.919 700.391 727.414 700.391C716.012 700.391 707.33 696.149 701.367 687.676V730.019H680.851V615.369H700.548V627.285C706.624 618.058 715.58 613.434 727.414 613.434C738.919 613.434 748.09 617.361 754.929 625.192ZM722.521 683.637C729.246 683.637 734.572 681.217 738.475 676.39C742.275 671.664 744.176 664.958 744.176 656.26C744.176 647.776 742.298 641.317 738.554 636.861C734.811 632.405 729.462 630.177 722.521 630.177C715.682 630.177 710.357 632.484 706.568 637.097C702.767 641.711 700.867 648.316 700.867 656.901C700.867 665.599 702.824 672.193 706.727 676.705C710.414 681.33 715.682 683.637 722.521 683.637Z" fill="#2A2F3D"/>
<path d="M783.586 672.036H803.613C804.159 677.189 805.866 680.835 808.745 682.984C811.624 685.133 816.153 686.202 822.343 686.202C833.415 686.202 838.957 682.871 838.957 676.221C838.957 673.217 837.762 670.91 835.373 669.301C832.983 667.692 828.693 666.353 822.514 665.273L812.91 663.664C794.567 660.659 785.395 652.288 785.395 638.549C785.395 630.717 788.433 624.562 794.51 620.117C800.586 615.662 809.166 613.434 820.238 613.434C844.226 613.434 856.606 622.829 857.369 641.609H837.99C837.774 636.67 836.203 633.159 833.267 631.066C830.332 628.973 825.996 627.927 820.238 627.927C810.475 627.927 805.582 631.145 805.582 637.592C805.582 640.383 806.663 642.555 808.836 644.107C811.01 645.66 814.583 646.875 819.578 647.731L830.161 649.34C840.368 651.163 847.776 654.066 852.385 658.038C856.993 662.01 859.303 667.535 859.303 674.624C859.303 682.995 856.049 689.432 849.528 693.944C843.019 698.456 833.848 700.706 822.013 700.706C797.48 700.695 784.667 691.142 783.586 672.036Z" fill="#2A2F3D"/>
<path d="M999.731 621.49C1004.89 626.858 1007.47 634.205 1007.47 643.545V698.445H986.952V646.763C986.952 636.242 982.116 630.987 972.455 630.987C967.244 630.987 963.045 632.844 959.836 636.546C956.638 640.248 955.034 645.638 955.034 652.727V698.456H934.676V646.763C934.676 636.242 929.795 630.987 920.02 630.987C914.922 630.987 910.769 632.844 907.56 636.546C904.351 640.248 902.758 645.638 902.758 652.727V698.456H882.241V615.369H902.109V627.285C907.856 618.058 915.844 613.434 926.04 613.434C938.853 613.434 947.535 618.587 952.098 628.894C958.391 618.587 967.073 613.434 978.145 613.434C987.385 613.434 994.576 616.123 999.731 621.49Z" fill="#2A2F3D"/>
<path d="M1164.66 630.827H1138.41V675.746C1138.41 678.435 1139.14 680.315 1140.61 681.383C1142.07 682.452 1144.54 682.993 1148.01 682.993H1163V698.453C1158.55 698.881 1146.98 699.095 1144.27 699.095C1135.15 699.095 1128.51 697.407 1124.32 694.02C1120.15 690.633 1118.05 685.243 1118.05 677.839V630.827H1099.01V615.366H1118.06V587.641H1138.42V615.378H1164.67V630.827H1164.66Z" fill="#2A2F3D"/>
<path d="M1256.43 621.236C1261.7 626.445 1264.32 633.816 1264.32 643.38V698.449H1243.81V646.756C1243.81 636.235 1238.54 630.98 1228.01 630.98C1222.8 630.98 1218.37 632.825 1214.74 636.539C1211.11 640.241 1209.29 645.361 1209.29 651.909V698.438H1188.78V587.625H1209.29V626.468C1215.7 617.77 1224.22 613.427 1234.85 613.427C1243.97 613.427 1251.16 616.037 1256.43 621.236Z" fill="#2A2F3D"/>
<path d="M1361 710.35H1280.89V725.81H1361V710.35Z" fill="#FF6D2D"/>
<path d="M1069.91 682.99V615.363H1026.76V630.824H1049.39V682.99H1026.76V698.45H1092.54V682.99H1069.91Z" fill="#2A2F3D"/>
</g>
<path d="M397.412 521.441H128.439V790.414H397.412V521.441Z" fill="#FF6D2D"/>
<path d="M373.79 497.82H104.817V766.793H373.79V497.82Z" fill="white"/>
<path fill-rule="evenodd" clip-rule="evenodd" d="M103 496H375.607V768.607H103V496ZM106.634 499.634V764.972H371.972V499.634H106.634Z" fill="black"/>
<path d="M209.883 663.954C208.801 662.065 207.975 658.353 207.406 652.818C201.276 661.656 191.491 666.076 178.049 666.08C168.033 666.08 160.047 663.662 154.09 658.827C148.134 653.992 145.158 647.273 145.161 638.67C145.161 622.045 156.832 612.555 180.175 610.201L193.966 608.962C198.563 608.375 201.864 607.284 203.869 605.69C205.873 604.097 206.876 601.704 206.876 598.513C206.876 594.627 205.614 591.767 203.09 589.936C200.566 588.104 196.291 587.19 190.267 587.194C183.777 587.194 179.122 588.275 176.302 590.439C173.483 592.602 171.831 596.345 171.348 601.666H149.407C150.697 580.92 164.372 570.547 190.429 570.547C215.779 570.547 228.453 579.683 228.449 597.956V646.647C228.449 654.666 229.688 660.435 232.165 663.954H209.883ZM200.331 644.419C204.694 640.583 206.876 635.07 206.876 627.881V619.573C204.755 621.455 201.278 622.692 196.443 623.283L184.42 624.7C178.525 625.422 174.31 626.806 171.776 628.854C169.241 630.902 167.979 633.878 167.99 637.783C167.99 641.677 169.315 644.713 171.965 646.891C174.615 649.069 178.417 650.15 183.371 650.136C190.322 650.154 195.976 648.248 200.331 644.419Z" fill="black"/>
<path d="M246.445 694.02V677.043H333.444V694.02H246.445Z" fill="black"/>
<path d="M138.698 882.424H120.33V871.6H170.35V882.424H151.982V929H138.698V882.424ZM203.409 884.228C208.876 884.228 213.277 885.868 216.611 889.148C220.001 892.428 221.695 897.293 221.695 903.744V929H208.903V905.712C208.903 902.213 208.138 899.617 206.607 897.922C205.077 896.173 202.863 895.298 199.965 895.298C196.74 895.298 194.171 896.309 192.257 898.332C190.344 900.3 189.387 903.252 189.387 907.188V929H176.595V868.156H189.387V889.476C191.082 887.781 193.132 886.497 195.537 885.622C197.943 884.693 200.567 884.228 203.409 884.228ZM276.985 907.106C276.985 907.27 276.903 908.418 276.739 910.55H243.365C243.967 913.283 245.388 915.443 247.629 917.028C249.871 918.613 252.659 919.406 255.993 919.406C258.289 919.406 260.312 919.078 262.061 918.422C263.865 917.711 265.533 916.618 267.063 915.142L273.869 922.522C269.715 927.278 263.647 929.656 255.665 929.656C250.691 929.656 246.29 928.699 242.463 926.786C238.637 924.818 235.685 922.112 233.607 918.668C231.53 915.224 230.491 911.315 230.491 906.942C230.491 902.623 231.503 898.742 233.525 895.298C235.603 891.799 238.418 889.093 241.971 887.18C245.579 885.212 249.597 884.228 254.025 884.228C258.344 884.228 262.253 885.157 265.751 887.016C269.25 888.875 271.983 891.553 273.951 895.052C275.974 898.496 276.985 902.514 276.985 907.106ZM254.107 893.904C251.21 893.904 248.777 894.724 246.809 896.364C244.841 898.004 243.639 900.245 243.201 903.088H264.931C264.494 900.3 263.291 898.086 261.323 896.446C259.355 894.751 256.95 893.904 254.107 893.904ZM337.424 929.984C331.466 929.984 326.081 928.699 321.27 926.13C316.514 923.561 312.77 920.035 310.036 915.552C307.358 911.015 306.018 905.931 306.018 900.3C306.018 894.669 307.358 889.613 310.036 885.13C312.77 880.593 316.514 877.039 321.27 874.47C326.081 871.901 331.466 870.616 337.424 870.616C343.383 870.616 348.74 871.901 353.496 874.47C358.252 877.039 361.997 880.593 364.73 885.13C367.464 889.613 368.83 894.669 368.83 900.3C368.83 905.931 367.464 911.015 364.73 915.552C361.997 920.035 358.252 923.561 353.496 926.13C348.74 928.699 343.383 929.984 337.424 929.984ZM337.424 918.668C340.814 918.668 343.875 917.903 346.608 916.372C349.342 914.787 351.474 912.6 353.004 909.812C354.59 907.024 355.382 903.853 355.382 900.3C355.382 896.747 354.59 893.576 353.004 890.788C351.474 888 349.342 885.841 346.608 884.31C343.875 882.725 340.814 881.932 337.424 881.932C334.035 881.932 330.974 882.725 328.24 884.31C325.507 885.841 323.348 888 321.762 890.788C320.232 893.576 319.466 896.747 319.466 900.3C319.466 903.853 320.232 907.024 321.762 909.812C323.348 912.6 325.507 914.787 328.24 916.372C330.974 917.903 334.035 918.668 337.424 918.668ZM397.674 929.984C393.136 929.984 388.736 929.383 384.472 928.18C380.262 926.923 376.873 925.31 374.304 923.342L378.814 913.338C381.274 915.142 384.198 916.591 387.588 917.684C390.977 918.777 394.366 919.324 397.756 919.324C401.528 919.324 404.316 918.777 406.12 917.684C407.924 916.536 408.826 915.033 408.826 913.174C408.826 911.807 408.279 910.687 407.186 909.812C406.147 908.883 404.78 908.145 403.086 907.598C401.446 907.051 399.204 906.45 396.362 905.794C391.988 904.755 388.408 903.717 385.62 902.678C382.832 901.639 380.426 899.972 378.404 897.676C376.436 895.38 375.452 892.319 375.452 888.492C375.452 885.157 376.354 882.151 378.158 879.472C379.962 876.739 382.668 874.579 386.276 872.994C389.938 871.409 394.394 870.616 399.642 870.616C403.304 870.616 406.885 871.053 410.384 871.928C413.882 872.803 416.944 874.06 419.568 875.7L415.468 885.786C410.165 882.779 404.862 881.276 399.56 881.276C395.842 881.276 393.082 881.877 391.278 883.08C389.528 884.283 388.654 885.868 388.654 887.836C388.654 889.804 389.665 891.28 391.688 892.264C393.765 893.193 396.908 894.123 401.118 895.052C405.491 896.091 409.072 897.129 411.86 898.168C414.648 899.207 417.026 900.847 418.994 903.088C421.016 905.329 422.028 908.363 422.028 912.19C422.028 915.47 421.098 918.477 419.24 921.21C417.436 923.889 414.702 926.021 411.04 927.606C407.377 929.191 402.922 929.984 397.674 929.984ZM449.965 929.984C445.427 929.984 441.027 929.383 436.763 928.18C432.553 926.923 429.164 925.31 426.595 923.342L431.105 913.338C433.565 915.142 436.489 916.591 439.879 917.684C443.268 918.777 446.657 919.324 450.047 919.324C453.819 919.324 456.607 918.777 458.411 917.684C460.215 916.536 461.117 915.033 461.117 913.174C461.117 911.807 460.57 910.687 459.477 909.812C458.438 908.883 457.071 908.145 455.377 907.598C453.737 907.051 451.495 906.45 448.653 905.794C444.279 904.755 440.699 903.717 437.911 902.678C435.123 901.639 432.717 899.972 430.695 897.676C428.727 895.38 427.743 892.319 427.743 888.492C427.743 885.157 428.645 882.151 430.449 879.472C432.253 876.739 434.959 874.579 438.567 872.994C442.229 871.409 446.685 870.616 451.933 870.616C455.595 870.616 459.176 871.053 462.675 871.928C466.173 872.803 469.235 874.06 471.859 875.7L467.759 885.786C462.456 882.779 457.153 881.276 451.851 881.276C448.133 881.276 445.373 881.877 443.569 883.08C441.819 884.283 440.945 885.868 440.945 887.836C440.945 889.804 441.956 891.28 443.979 892.264C446.056 893.193 449.199 894.123 453.409 895.052C457.782 896.091 461.363 897.129 464.151 898.168C466.939 899.207 469.317 900.847 471.285 903.088C473.307 905.329 474.319 908.363 474.319 912.19C474.319 915.47 473.389 918.477 471.531 921.21C469.727 923.889 466.993 926.021 463.331 927.606C459.668 929.191 455.213 929.984 449.965 929.984ZM506.619 871.6H519.903V929H506.619V871.6ZM559.437 884.228C564.903 884.228 569.304 885.868 572.639 889.148C576.028 892.428 577.723 897.293 577.723 903.744V929H564.931V905.712C564.931 902.213 564.165 899.617 562.635 897.922C561.104 896.173 558.89 895.298 555.993 895.298C552.767 895.298 550.198 896.309 548.285 898.332C546.371 900.3 545.415 903.252 545.415 907.188V929H532.623V884.884H544.841V890.05C546.535 888.191 548.64 886.77 551.155 885.786C553.669 884.747 556.43 884.228 559.437 884.228ZM617.772 926.868C616.515 927.797 614.957 928.508 613.098 929C611.294 929.437 609.381 929.656 607.358 929.656C602.11 929.656 598.037 928.317 595.14 925.638C592.297 922.959 590.876 919.023 590.876 913.83V895.708H584.07V885.868H590.876V875.126H603.668V885.868H614.656V895.708H603.668V913.666C603.668 915.525 604.133 916.973 605.062 918.012C606.046 918.996 607.413 919.488 609.162 919.488C611.185 919.488 612.907 918.941 614.328 917.848L617.772 926.868ZM666.806 907.106C666.806 907.27 666.724 908.418 666.56 910.55H633.186C633.787 913.283 635.208 915.443 637.45 917.028C639.691 918.613 642.479 919.406 645.814 919.406C648.11 919.406 650.132 919.078 651.882 918.422C653.686 917.711 655.353 916.618 656.884 915.142L663.69 922.522C659.535 927.278 653.467 929.656 645.486 929.656C640.511 929.656 636.11 928.699 632.284 926.786C628.457 924.818 625.505 922.112 623.428 918.668C621.35 915.224 620.312 911.315 620.312 906.942C620.312 902.623 621.323 898.742 623.346 895.298C625.423 891.799 628.238 889.093 631.792 887.18C635.4 885.212 639.418 884.228 643.846 884.228C648.164 884.228 652.073 885.157 655.572 887.016C659.07 888.875 661.804 891.553 663.772 895.052C665.794 898.496 666.806 902.514 666.806 907.106ZM643.928 893.904C641.03 893.904 638.598 894.724 636.63 896.364C634.662 898.004 633.459 900.245 633.022 903.088H654.752C654.314 900.3 653.112 898.086 651.144 896.446C649.176 894.751 646.77 893.904 643.928 893.904ZM687.54 890.706C689.071 888.574 691.121 886.961 693.69 885.868C696.314 884.775 699.321 884.228 702.71 884.228V896.036C701.289 895.927 700.332 895.872 699.84 895.872C696.177 895.872 693.307 896.911 691.23 898.988C689.153 901.011 688.114 904.072 688.114 908.172V929H675.322V884.884H687.54V890.706ZM737.13 884.228C742.597 884.228 746.997 885.868 750.332 889.148C753.721 892.428 755.416 897.293 755.416 903.744V929H742.624V905.712C742.624 902.213 741.859 899.617 740.328 897.922C738.797 896.173 736.583 895.298 733.686 895.298C730.461 895.298 727.891 896.309 725.978 898.332C724.065 900.3 723.108 903.252 723.108 907.188V929H710.316V884.884H722.534V890.05C724.229 888.191 726.333 886.77 728.848 885.786C731.363 884.747 734.123 884.228 737.13 884.228ZM784.805 884.228C791.639 884.228 796.887 885.868 800.549 889.148C804.212 892.373 806.043 897.266 806.043 903.826V929H794.071V923.506C791.666 927.606 787.183 929.656 780.623 929.656C777.234 929.656 774.282 929.082 771.767 927.934C769.307 926.786 767.421 925.201 766.109 923.178C764.797 921.155 764.141 918.859 764.141 916.29C764.141 912.19 765.672 908.965 768.733 906.614C771.849 904.263 776.633 903.088 783.083 903.088H793.251C793.251 900.3 792.404 898.168 790.709 896.692C789.015 895.161 786.473 894.396 783.083 894.396C780.733 894.396 778.409 894.779 776.113 895.544C773.872 896.255 771.959 897.239 770.373 898.496L765.781 889.558C768.187 887.863 771.057 886.551 774.391 885.622C777.781 884.693 781.252 884.228 784.805 884.228ZM783.821 921.046C786.008 921.046 787.949 920.554 789.643 919.57C791.338 918.531 792.541 917.028 793.251 915.06V910.55H784.477C779.229 910.55 776.605 912.272 776.605 915.716C776.605 917.356 777.234 918.668 778.491 919.652C779.803 920.581 781.58 921.046 783.821 921.046ZM817.621 868.156H830.413V929H817.621V868.156ZM878.3 882.424H859.932V871.6H909.952V882.424H891.584V929H878.3V882.424ZM932.705 929.656C928.058 929.656 923.876 928.699 920.159 926.786C916.496 924.818 913.626 922.112 911.549 918.668C909.471 915.224 908.433 911.315 908.433 906.942C908.433 902.569 909.471 898.66 911.549 895.216C913.626 891.772 916.496 889.093 920.159 887.18C923.876 885.212 928.058 884.228 932.705 884.228C937.351 884.228 941.506 885.212 945.169 887.18C948.831 889.093 951.701 891.772 953.779 895.216C955.856 898.66 956.895 902.569 956.895 906.942C956.895 911.315 955.856 915.224 953.779 918.668C951.701 922.112 948.831 924.818 945.169 926.786C941.506 928.699 937.351 929.656 932.705 929.656ZM932.705 919.16C935.985 919.16 938.663 918.067 940.741 915.88C942.873 913.639 943.939 910.659 943.939 906.942C943.939 903.225 942.873 900.273 940.741 898.086C938.663 895.845 935.985 894.724 932.705 894.724C929.425 894.724 926.719 895.845 924.587 898.086C922.455 900.273 921.389 903.225 921.389 906.942C921.389 910.659 922.455 913.639 924.587 915.88C926.719 918.067 929.425 919.16 932.705 919.16ZM986.437 929.656C981.79 929.656 977.608 928.699 973.891 926.786C970.228 924.818 967.358 922.112 965.281 918.668C963.204 915.224 962.165 911.315 962.165 906.942C962.165 902.569 963.204 898.66 965.281 895.216C967.358 891.772 970.228 889.093 973.891 887.18C977.608 885.212 981.79 884.228 986.437 884.228C991.084 884.228 995.238 885.212 998.901 887.18C1002.56 889.093 1005.43 891.772 1007.51 895.216C1009.59 898.66 1010.63 902.569 1010.63 906.942C1010.63 911.315 1009.59 915.224 1007.51 918.668C1005.43 922.112 1002.56 924.818 998.901 926.786C995.238 928.699 991.084 929.656 986.437 929.656ZM986.437 919.16C989.717 919.16 992.396 918.067 994.473 915.88C996.605 913.639 997.671 910.659 997.671 906.942C997.671 903.225 996.605 900.273 994.473 898.086C992.396 895.845 989.717 894.724 986.437 894.724C983.157 894.724 980.451 895.845 978.319 898.086C976.187 900.273 975.121 903.225 975.121 906.942C975.121 910.659 976.187 913.639 978.319 915.88C980.451 918.067 983.157 919.16 986.437 919.16ZM1019.18 868.156H1031.97V929H1019.18V868.156ZM1058.68 929.656C1055.02 929.656 1051.44 929.219 1047.94 928.344C1044.44 927.415 1041.65 926.267 1039.58 924.9L1043.84 915.716C1045.81 916.973 1048.19 918.012 1050.98 918.832C1053.76 919.597 1056.5 919.98 1059.18 919.98C1064.59 919.98 1067.29 918.641 1067.29 915.962C1067.29 914.705 1066.56 913.803 1065.08 913.256C1063.6 912.709 1061.33 912.245 1058.27 911.862C1054.67 911.315 1051.69 910.687 1049.34 909.976C1046.98 909.265 1044.93 908.008 1043.19 906.204C1041.49 904.4 1040.64 901.831 1040.64 898.496C1040.64 895.708 1041.44 893.248 1043.02 891.116C1044.66 888.929 1047.01 887.235 1050.07 886.032C1053.19 884.829 1056.85 884.228 1061.06 884.228C1064.18 884.228 1067.27 884.583 1070.33 885.294C1073.44 885.95 1076.01 886.879 1078.04 888.082L1073.77 897.184C1069.89 894.997 1065.65 893.904 1061.06 893.904C1058.33 893.904 1056.28 894.287 1054.91 895.052C1053.54 895.817 1052.86 896.801 1052.86 898.004C1052.86 899.371 1053.6 900.327 1055.08 900.874C1056.55 901.421 1058.9 901.94 1062.13 902.432C1065.74 903.033 1068.69 903.689 1070.98 904.4C1073.28 905.056 1075.27 906.286 1076.97 908.09C1078.66 909.894 1079.51 912.409 1079.51 915.634C1079.51 918.367 1078.69 920.8 1077.05 922.932C1075.41 925.064 1073.01 926.731 1069.84 927.934C1066.72 929.082 1063 929.656 1058.68 929.656ZM1130.39 929.984C1125.85 929.984 1121.45 929.383 1117.19 928.18C1112.98 926.923 1109.59 925.31 1107.02 923.342L1111.53 913.338C1113.99 915.142 1116.91 916.591 1120.3 917.684C1123.69 918.777 1127.08 919.324 1130.47 919.324C1134.24 919.324 1137.03 918.777 1138.83 917.684C1140.64 916.536 1141.54 915.033 1141.54 913.174C1141.54 911.807 1140.99 910.687 1139.9 909.812C1138.86 908.883 1137.5 908.145 1135.8 907.598C1134.16 907.051 1131.92 906.45 1129.08 905.794C1124.7 904.755 1121.12 903.717 1118.33 902.678C1115.55 901.639 1113.14 899.972 1111.12 897.676C1109.15 895.38 1108.17 892.319 1108.17 888.492C1108.17 885.157 1109.07 882.151 1110.87 879.472C1112.68 876.739 1115.38 874.579 1118.99 872.994C1122.65 871.409 1127.11 870.616 1132.36 870.616C1136.02 870.616 1139.6 871.053 1143.1 871.928C1146.6 872.803 1149.66 874.06 1152.28 875.7L1148.18 885.786C1142.88 882.779 1137.58 881.276 1132.27 881.276C1128.56 881.276 1125.8 881.877 1123.99 883.08C1122.24 884.283 1121.37 885.868 1121.37 887.836C1121.37 889.804 1122.38 891.28 1124.4 892.264C1126.48 893.193 1129.62 894.123 1133.83 895.052C1138.21 896.091 1141.79 897.129 1144.57 898.168C1147.36 899.207 1149.74 900.847 1151.71 903.088C1153.73 905.329 1154.74 908.363 1154.74 912.19C1154.74 915.47 1153.81 918.477 1151.95 921.21C1150.15 923.889 1147.42 926.021 1143.75 927.606C1140.09 929.191 1135.64 929.984 1130.39 929.984ZM1191.37 926.868C1190.11 927.797 1188.56 928.508 1186.7 929C1184.89 929.437 1182.98 929.656 1180.96 929.656C1175.71 929.656 1171.64 928.317 1168.74 925.638C1165.9 922.959 1164.48 919.023 1164.48 913.83V895.708H1157.67V885.868H1164.48V875.126H1177.27V885.868H1188.26V895.708H1177.27V913.666C1177.27 915.525 1177.73 916.973 1178.66 918.012C1179.65 918.996 1181.01 919.488 1182.76 919.488C1184.78 919.488 1186.51 918.941 1187.93 917.848L1191.37 926.868ZM1216.35 884.228C1223.18 884.228 1228.43 885.868 1232.09 889.148C1235.75 892.373 1237.58 897.266 1237.58 903.826V929H1225.61V923.506C1223.21 927.606 1218.72 929.656 1212.16 929.656C1208.78 929.656 1205.82 929.082 1203.31 927.934C1200.85 926.786 1198.96 925.201 1197.65 923.178C1196.34 921.155 1195.68 918.859 1195.68 916.29C1195.68 912.19 1197.21 908.965 1200.27 906.614C1203.39 904.263 1208.17 903.088 1214.62 903.088H1224.79C1224.79 900.3 1223.95 898.168 1222.25 896.692C1220.56 895.161 1218.01 894.396 1214.62 894.396C1212.27 894.396 1209.95 894.779 1207.65 895.544C1205.41 896.255 1203.5 897.239 1201.91 898.496L1197.32 889.558C1199.73 887.863 1202.6 886.551 1205.93 885.622C1209.32 884.693 1212.79 884.228 1216.35 884.228ZM1215.36 921.046C1217.55 921.046 1219.49 920.554 1221.18 919.57C1222.88 918.531 1224.08 917.028 1224.79 915.06V910.55H1216.02C1210.77 910.55 1208.15 912.272 1208.15 915.716C1208.15 917.356 1208.78 918.668 1210.03 919.652C1211.34 920.581 1213.12 921.046 1215.36 921.046ZM1270.96 929.656C1266.26 929.656 1262.02 928.699 1258.25 926.786C1254.53 924.818 1251.61 922.112 1249.48 918.668C1247.4 915.224 1246.36 911.315 1246.36 906.942C1246.36 902.569 1247.4 898.66 1249.48 895.216C1251.61 891.772 1254.53 889.093 1258.25 887.18C1262.02 885.212 1266.26 884.228 1270.96 884.228C1275.61 884.228 1279.65 885.212 1283.1 887.18C1286.6 889.093 1289.14 891.854 1290.72 895.462L1280.8 900.792C1278.51 896.747 1275.2 894.724 1270.88 894.724C1267.55 894.724 1264.78 895.817 1262.6 898.004C1260.41 900.191 1259.32 903.17 1259.32 906.942C1259.32 910.714 1260.41 913.693 1262.6 915.88C1264.78 918.067 1267.55 919.16 1270.88 919.16C1275.25 919.16 1278.56 917.137 1280.8 913.092L1290.72 918.504C1289.14 922.003 1286.6 924.736 1283.1 926.704C1279.65 928.672 1275.61 929.656 1270.96 929.656ZM1316.71 911.698L1310.56 917.766V929H1297.77V868.156H1310.56V902.596L1329.26 884.884H1344.51L1326.14 903.58L1346.15 929H1330.65L1316.71 911.698Z" fill="#2A2F3D"/>
<rect x="4" y="4" width="1459" height="1459" rx="729.5" stroke="#DADADA" stroke-width="8"/>
<defs>
<clipPath id="clip0">
<rect width="890" height="147" fill="white" transform="translate(471 583)"/>
</clipPath>
</defs>
</svg>
