<?xml version="1.0" encoding="UTF-8"?>
<svg width="358px" height="66px" viewBox="0 0 358 66" version="1.1" xmlns="http://www.w3.org/2000/svg" xmlns:xlink="http://www.w3.org/1999/xlink">
    <title>ag-grid</title>
    <g id="partners" stroke="none" stroke-width="1" fill="none" fill-rule="evenodd">
        <g id="ag-grid" transform="translate(0, 2)">
            <polygon id="Path" fill="#FF8B00" fill-rule="nonzero" points="331.676471 40.7836879 331.676471 27.0425532 308.314338 27.0425532 294.604167 40.7836879"></polygon>
            <polygon id="Path" fill="#55B2C6" fill-rule="nonzero" points="358 6.70567376 328.715074 6.70567376 314.895221 20.4468085 358 20.4468085"></polygon>
            <polygon id="Path" fill="#FF0000" fill-rule="nonzero" points="281.003676 54.5248227 288.023284 47.4893617 311.714461 47.4893617 311.714461 61.2304965 281.003676 61.2304965"></polygon>
            <polygon id="Path" fill="#B4BBBF" fill-rule="nonzero" points="286.158701 34.0780142 301.29473 34.0780142 315.114583 20.3368794 286.158701 20.3368794"></polygon>
            <polygon id="Path" fill="#B4BBBF" fill-rule="nonzero" points="269.596814 54.5248227 281.003676 54.5248227 294.604167 40.7836879 269.596814 40.7836879"></polygon>
            <polygon id="Path" fill="#B4BBBF" fill-rule="nonzero" points="328.715074 6.70567376 321.695466 13.7411348 276.945466 13.7411348 276.945466 -2.8533352e-14 328.715074 -2.8533352e-14"></polygon>
            <path d="M34.6593137,52.106383 L13.1617647,52.106383 L9.43259804,61.3404255 L0,61.3404255 L19.8523284,14.7304965 L28.0784314,14.7304965 L47.9307598,61.3404255 L38.3884804,61.3404255 L34.6593137,52.106383 Z M31.6979167,44.7411348 L23.9105392,25.7234043 L16.1231618,44.7411348 L31.6979167,44.7411348 Z" id="Shape" fill="#031C4C" fill-rule="nonzero"></path>
            <path d="M178.890319,31.8794326 C181.632353,27.8120567 188.542279,27.3723404 191.393995,27.3723404 L191.393995,35.287234 C187.884191,35.287234 184.374387,35.3971631 182.290441,36.9361702 C180.206495,38.4751773 179.109681,40.5638298 179.109681,43.0921986 L179.109681,61.3404255 L170.554534,61.3404255 L170.554534,27.3723404 L178.780637,27.3723404 L178.890319,31.8794326 Z" id="Path" fill="#031C4C" fill-rule="nonzero"></path>
            <rect id="Rectangle" fill="#031C4C" x="196.110294" y="27.3723404" width="8.55514706" height="33.9680851"></rect>
            <rect id="Rectangle" fill="#031C4C" x="196.110294" y="12.2021277" width="8.55514706" height="10.1134752"></rect>
            <path d="M247.112132,12.2021277 L247.112132,61.3404255 L238.886029,61.3404255 L238.666667,56.1737589 C237.460172,57.9326241 235.924632,59.3617021 234.060049,60.4609929 C232.195466,61.4503546 229.892157,62 227.259804,62 C224.956495,62 222.762868,61.5602837 220.898284,60.7907801 C218.92402,59.9113475 217.169118,58.8120567 215.74326,57.2730496 C214.317402,55.7340426 213.110907,53.8652482 212.343137,51.7765957 C211.465686,49.6879433 211.136642,47.2695035 211.136642,44.6312057 C211.136642,41.9929078 211.575368,39.5744681 212.343137,37.3758865 C213.220588,35.177305 214.317402,33.3085106 215.74326,31.7695035 C217.169118,30.2304965 218.92402,29.0212766 220.898284,28.141844 C222.872549,27.2624113 224.956495,26.822695 227.259804,26.822695 C229.892157,26.822695 232.085784,27.2624113 233.950368,28.251773 C235.814951,29.2411348 237.35049,30.5602837 238.556985,32.429078 L238.556985,12.3120567 L247.112132,12.3120567 L247.112132,12.2021277 Z M229.124387,54.6347518 C231.976103,54.6347518 234.16973,53.6453901 235.924632,51.7765957 C237.679534,49.9078014 238.556985,47.3794326 238.556985,44.3014184 C238.556985,41.2234043 237.679534,38.8049645 235.924632,36.8262411 C234.16973,34.9574468 231.976103,33.9680851 229.124387,33.9680851 C226.382353,33.9680851 224.079044,34.9574468 222.433824,36.8262411 C220.678922,38.6950355 219.801471,41.2234043 219.801471,44.3014184 C219.801471,47.3794326 220.678922,49.7978723 222.433824,51.6666667 C224.188725,53.6453901 226.382353,54.6347518 229.124387,54.6347518" id="Shape" fill="#031C4C" fill-rule="nonzero"></path>
            <path d="M97.3970588,35.0673759 L76.2285539,35.0673759 L76.2285539,42.4326241 L88.2935049,42.4326241 C87.9644608,46.1702128 86.5386029,49.0283688 84.1256127,51.3368794 C81.7126225,53.535461 78.6415441,54.6347518 74.6930147,54.6347518 C72.4993873,54.6347518 70.4154412,54.1950355 68.6605392,53.4255319 C66.7959559,52.6560284 65.2604167,51.5567376 63.9442402,50.0177305 C62.6280637,48.5886525 61.6409314,46.8297872 60.8731618,44.7411348 C60.1053922,42.6524823 59.776348,40.4539007 59.776348,37.9255319 C59.776348,35.3971631 60.1053922,33.1985816 60.8731618,31.1099291 C61.53125,29.0212766 62.6280637,27.3723404 63.9442402,25.8333333 C65.2604167,24.4042553 66.7959559,23.3049645 68.6605392,22.4255319 C70.5251225,21.6560284 72.4993873,21.2163121 74.8026961,21.2163121 C79.4093137,21.2163121 82.9191176,22.3156028 85.3321078,24.5141844 L91.0355392,18.7978723 C86.7579657,15.5 81.2738971,13.7411348 74.8026961,13.7411348 C71.1832108,13.7411348 67.8927696,14.2907801 64.9313725,15.5 C61.9699755,16.7092199 59.4473039,18.248227 57.3633578,20.3368794 C55.2794118,22.4255319 53.6341912,24.9539007 52.5373775,27.9219858 C51.4405637,30.8900709 50.8921569,34.1879433 50.8921569,37.7056738 C50.8921569,41.2234043 51.4405637,44.5212766 52.6470588,47.4893617 C53.8535539,50.4574468 55.3890931,52.9858156 57.4730392,55.0744681 C59.5569853,57.1631206 62.0796569,58.8120567 65.0410539,59.9113475 C68.002451,61.1205674 71.2928922,61.6702128 74.8026961,61.6702128 C78.3125,61.6702128 81.4932598,61.1205674 84.3449755,59.9113475 C87.1966912,58.7021277 89.6096814,57.1631206 91.5839461,55.0744681 C93.5582108,52.9858156 95.09375,50.4574468 96.1905637,47.4893617 C97.2873775,44.5212766 97.8357843,41.2234043 97.8357843,37.7056738 L97.8357843,36.2765957 C97.5067402,36.0567376 97.3970588,35.5070922 97.3970588,35.0673759" id="Path" fill="#031C4C" fill-rule="nonzero"></path>
            <path d="M164.302696,35.0673759 L143.134191,35.0673759 L143.134191,42.4326241 L155.199142,42.4326241 C154.870098,46.1702128 153.44424,49.0283688 151.03125,51.3368794 C148.61826,53.535461 145.547181,54.6347518 141.598652,54.6347518 C139.405025,54.6347518 137.321078,54.1950355 135.566176,53.4255319 C133.701593,52.6560284 132.166054,51.5567376 130.849877,50.0177305 C129.533701,48.5886525 128.546569,46.8297872 127.778799,44.7411348 C127.011029,42.6524823 126.681985,40.4539007 126.681985,37.9255319 C126.681985,35.3971631 127.011029,33.1985816 127.778799,31.1099291 C128.436887,29.0212766 129.533701,27.3723404 130.849877,25.8333333 C132.166054,24.4042553 133.701593,23.3049645 135.566176,22.4255319 C137.43076,21.6560284 139.405025,21.2163121 141.708333,21.2163121 C146.314951,21.2163121 149.824755,22.3156028 152.237745,24.5141844 L157.941176,18.7978723 C153.663603,15.5 148.179534,13.7411348 141.708333,13.7411348 C138.088848,13.7411348 134.798407,14.2907801 131.83701,15.5 C128.875613,16.7092199 126.352941,18.248227 124.268995,20.3368794 C122.185049,22.4255319 120.539828,24.9539007 119.443015,27.9219858 C118.346201,30.8900709 117.797794,34.1879433 117.797794,37.7056738 C117.797794,41.2234043 118.346201,44.5212766 119.552696,47.4893617 C120.759191,50.4574468 122.29473,52.9858156 124.378676,55.0744681 C126.462623,57.1631206 128.985294,58.8120567 131.946691,59.9113475 C134.908088,61.1205674 138.198529,61.6702128 141.708333,61.6702128 C145.218137,61.6702128 148.398897,61.1205674 151.250613,59.9113475 C154.102328,58.7021277 156.515319,57.1631206 158.489583,55.0744681 C160.463848,52.9858156 161.999387,50.4574468 163.096201,47.4893617 C164.193015,44.5212766 164.741422,41.2234043 164.741422,37.7056738 L164.741422,36.2765957 C164.412377,36.0567376 164.302696,35.5070922 164.302696,35.0673759" id="Path" fill="#031C4C" fill-rule="nonzero"></path>
        </g>
    </g>
</svg>