<?xml version="1.0" encoding="UTF-8"?>
<svg width="358px" height="66px" viewBox="0 0 358 66" version="1.1" xmlns="http://www.w3.org/2000/svg" xmlns:xlink="http://www.w3.org/1999/xlink">
    <title>clerk</title>
    <g id="partners" stroke="none" stroke-width="1" fill="none" fill-rule="evenodd">
        <g id="clerk" transform="translate(0, 2)" fill="#000000">
            <ellipse id="Oval" fill-rule="nonzero" cx="31.2731043" cy="31.0002906" rx="9.77262277" ry="9.68759082"></ellipse>
            <path d="M48.8810955,53.9370182 C49.7125536,54.7612384 49.6290951,56.1258324 48.6520244,56.7745135 C43.6814531,60.0750757 37.702734,62 31.2705634,62 C24.8385883,62 18.8599474,60.0750757 13.8892002,56.7745135 C12.9122663,56.1258324 12.8287882,54.7612384 13.6602267,53.9370182 L20.8018926,46.8575205 C21.4474746,46.2175583 22.4487816,46.1166136 23.2612807,46.5291112 C25.663401,47.7491664 28.3860645,48.4373729 31.2705634,48.4373729 C34.1552577,48.4373729 36.8777259,47.7491664 39.2800416,46.5291112 C40.0925407,46.1166136 41.0938477,46.2175583 41.7394297,46.8575205 L48.8810955,53.9370182 Z" id="Path" fill-rule="nonzero"></path>
            <path d="M48.6537834,5.22548649 C49.6306587,5.87416757 49.7141172,7.23874224 48.8826592,8.06296247 L41.7409933,15.142557 C41.0956067,15.7824223 40.0941044,15.8834833 39.2818007,15.4709082 C36.879485,14.2509305 34.1570168,13.5626271 31.2723225,13.5626271 C21.5573193,13.5626271 13.681668,21.3696628 13.681668,31.0002906 C13.681668,33.8598737 14.3760156,36.5586427 15.6067064,38.9400463 C16.0229046,39.7454726 15.9209366,40.7380632 15.2754718,41.3778317 L8.13372783,48.457523 C7.30226976,49.2817433 5.92571215,49.1988175 5.27133472,48.2304459 C1.94187091,43.3029497 0,37.3764692 0,31.0002906 C0,13.8792951 14.0011167,0 31.2723225,0 C37.7044931,0 43.6830167,1.92498048 48.6537834,5.22548649 Z" id="Path" fill-rule="nonzero"></path>
            <path d="M196.244823,41.1701297 C196.276095,41.1381607 196.317141,41.1201418 196.362095,41.1201418 C196.416822,41.1201418 196.465685,41.148042 196.495003,41.1941549 L205.763395,55.9595934 C205.853304,56.1016135 206.009667,56.1880268 206.177756,56.1880268 L214.509928,56.1880268 C214.893016,56.1880268 215.12756,55.7710729 214.926243,55.4484761 L202.210056,35.1128667 C202.096693,34.92919 202.118193,34.6924252 202.264783,34.5323862 L214.513837,21.1344481 C214.799199,20.823089 214.576382,20.3247593 214.152248,20.3247593 L205.460443,20.3247593 C205.323626,20.3247593 205.192672,20.3815286 205.100809,20.4816983 L190.926931,35.7966168 C190.625738,36.1221199 190.078273,35.9109304 190.078273,35.4691763 L190.078273,6.29693403 C190.078273,6.0294209 189.859366,5.81255449 189.58964,5.81255449 L182.260144,5.81255449 C181.990223,5.81255449 181.771511,6.0294209 181.771511,6.29693403 L181.771511,55.7036472 C181.771511,55.9712185 181.990223,56.1880268 182.260144,56.1880268 L189.58964,56.1880268 C189.859366,56.1880268 190.078273,55.9712185 190.078273,55.7036472 L190.078273,47.9289681 C190.078273,47.8065169 190.124986,47.6885221 190.209227,47.5990087 L196.244823,41.1701297 Z M102.124707,6.29693403 C102.124707,6.0294209 102.34342,5.81255449 102.61334,5.81255449 L109.942641,5.81255449 C110.212562,5.81255449 110.431274,6.0294209 110.431274,6.29693403 L110.431274,55.7036472 C110.431274,55.9712185 110.212562,56.1880268 109.942641,56.1880268 L102.61334,56.1880268 C102.34342,56.1880268 102.124707,55.9712185 102.124707,55.7036472 L102.124707,6.29693403 Z M91.7809311,45.7083785 C91.5862597,45.541752 91.2950344,45.5543458 91.1079856,45.7293037 C89.9657569,46.7982325 88.627684,47.6532592 87.1617848,48.2496273 C85.5535955,48.9043147 83.8246162,49.2338866 82.080587,49.2183864 C80.6078468,49.2617868 79.1415566,49.0120407 77.7720158,48.4846483 C76.4026704,47.9572558 75.1590015,47.1634547 74.1176266,46.1520702 C72.2260302,44.2378022 71.1371602,41.5045454 71.1371602,38.2464148 C71.1371602,31.7239537 75.5145309,27.2626243 82.080587,27.2626243 C83.8416206,27.2385991 85.5866271,27.5921962 87.1905164,28.2978403 C88.644493,28.9378025 89.9503161,29.8526986 91.0319543,30.987503 C91.2168531,31.1816423 91.5241056,31.2041175 91.7279633,31.0293534 L96.6760574,26.7850261 C96.8781561,26.6116182 96.9027832,26.3087841 96.7245299,26.111351 C93.0025139,21.9885061 87.1715574,19.8595612 81.6265491,19.8595612 C70.4620647,19.8595612 62.5456223,27.3250124 62.5456223,38.3084154 C62.5456223,43.7406351 64.5130545,48.3149217 67.8308733,51.5449582 C71.1488874,54.7749948 75.875533,56.6724063 81.3296556,56.6724063 C88.1683689,56.6724063 93.672723,54.0726444 96.8998514,50.7377882 C97.0892456,50.5420988 97.0683321,50.2305459 96.8611517,50.0534568 L91.7809311,45.7083785 Z M150.806831,40.66405 C150.779663,40.9066272 150.571506,41.0881727 150.325235,41.0881727 L124.64952,41.0881727 C124.337577,41.0881727 124.105183,41.3749254 124.186491,41.6734969 C125.463974,46.3675222 129.27238,49.2077301 134.470654,49.2077301 C136.222893,49.2441554 137.959886,48.8868771 139.547357,48.163214 C141.026547,47.4889577 142.338625,46.5136111 143.396027,45.3045997 C143.524048,45.1583171 143.746865,45.1366169 143.896582,45.2608118 L149.058698,49.7159411 C149.256106,49.8864427 149.283664,50.1815267 149.114206,50.3795411 C145.997705,54.0242065 140.94817,56.6724063 134.018962,56.6724063 C123.358747,56.6724063 115.317605,49.3545939 115.317605,38.2365335 C115.317605,32.7822261 117.211938,28.208327 120.36929,24.9786779 C122.03592,23.3178374 124.034038,22.0071063 126.239728,21.1272793 C128.445613,20.2474523 130.813138,19.8171295 133.196104,19.862855 C144.000759,19.862855 150.987626,27.3953443 150.987626,37.7961356 C150.974139,38.7544321 150.91394,39.711566 150.806831,40.66405 Z M124.340704,33.9139304 C124.250014,34.2128895 124.482994,34.5040985 124.797869,34.5040985 L141.870123,34.5040985 C142.18578,34.5040985 142.41876,34.2111457 142.331197,33.9106367 C141.167469,29.9183805 138.215343,27.254293 133.630596,27.254293 C132.281969,27.2118614 130.939987,27.4538574 129.695927,27.9634247 C128.452454,28.4731857 127.33583,29.2386991 126.423649,30.2072644 C125.464169,31.2856871 124.75487,32.5499177 124.340704,33.9139304 Z M176.391269,19.8647637 C176.663145,19.8618862 176.88518,20.0796632 176.88518,20.349172 L176.88518,28.4840358 C176.88518,28.7661384 176.643209,28.988178 176.359606,28.9674466 C175.567434,28.9091273 174.818653,28.8597206 174.32787,28.8597206 C167.934203,28.8597206 164.180719,33.3204686 164.180719,39.1756485 L164.180719,55.7036472 C164.180719,55.9712185 163.962007,56.1880268 163.692086,56.1880268 L156.36259,56.1880268 C156.092864,56.1880268 155.873957,55.9712185 155.873957,55.7036472 L155.873957,20.8521517 C155.873957,20.5845805 156.092864,20.3677722 156.36259,20.3677722 L163.692086,20.3677722 C163.962007,20.3677722 164.180719,20.5845805 164.180719,20.8521517 L164.180719,25.7438038 C164.180719,25.7715104 164.203392,25.7937918 164.231146,25.7937918 C164.247173,25.7937918 164.262028,25.7862355 164.271605,25.7736416 C167.136754,21.9807561 171.36558,19.8709925 175.833055,19.8709925 L176.391269,19.8647637 Z" id="Shape"></path>
        </g>
    </g>
</svg>