<?xml version="1.0" encoding="UTF-8"?>
<svg width="358px" height="66px" viewBox="0 0 358 66" version="1.1" xmlns="http://www.w3.org/2000/svg" xmlns:xlink="http://www.w3.org/1999/xlink">
    <title>convex</title>
    <g id="partners" stroke="none" stroke-width="1" fill="none" fill-rule="evenodd">
        <g id="convex" transform="translate(0, 4)" fill-rule="nonzero">
            <path d="M72.9339045,44.5779644 C69.1153748,41.1413511 67.2061099,36.0616356 67.2061099,29.3520518 C67.2061099,22.6424681 69.1531027,17.5628676 73.0505183,14.1262544 C76.9433607,10.689526 82.2687234,8.96793963 89.02089,8.96793963 C91.8264804,8.96793963 94.3039516,9.17093952 96.4601633,9.58982818 C98.616375,10.0022724 100.679982,10.7026451 102.64984,11.6976207 L102.64984,22.5835475 C99.58587,21.0452824 96.1080354,20.2728701 92.215193,20.2728701 C88.7865192,20.2728701 86.2541709,20.9601237 84.6227212,22.3348611 C82.9855551,23.7094834 82.1704019,26.0463988 82.1704019,29.3520518 C82.1704019,32.5465382 82.9729791,34.8572156 84.5861365,36.284199 C86.1924341,37.7177418 88.7373584,38.4312335 92.2220526,38.4312335 C95.9102493,38.4312335 99.4132358,37.5214166 102.736729,35.708227 L102.736729,47.0980861 C99.0485319,48.8590296 94.4514337,49.7361641 88.9477206,49.7361641 C82.0835132,49.7361641 76.7512909,48.0145777 72.9339045,44.5779644 Z" id="Path" fill="#141414"></path>
            <path d="M106.061365,29.3449169 C106.061365,22.6876943 107.852872,17.6277723 111.435888,14.1583615 C115.018904,10.6890657 120.418579,8.96091979 127.640631,8.96091979 C134.912986,8.96091979 140.349246,10.6956252 143.96313,14.1583615 C147.571298,17.6212128 149.375382,22.6876943 149.375382,29.3449169 C149.375382,42.9344018 142.129321,49.7290339 127.640631,49.7290339 C113.252548,49.7355887 106.061365,42.9408462 106.061365,29.3449169 Z M132.824228,36.2836236 C133.887471,34.8500807 134.419093,32.5394033 134.419093,29.3514764 C134.419093,26.2160257 133.887471,23.9183523 132.824228,22.4586864 C131.762128,20.9989055 130.032356,20.2722947 127.640631,20.2722947 C125.306068,20.2722947 123.612882,21.005465 122.574791,22.4586864 C121.536699,23.9183523 121.018797,26.2160257 121.018797,29.3514764 C121.018797,32.5459628 121.536699,34.8566402 122.574791,36.2836236 C123.612882,37.7172815 125.299209,38.4307732 127.640631,38.4307732 C130.032356,38.4307732 131.755268,37.710722 132.824228,36.2836236 Z" id="Shape" fill="#141414"></path>
            <path d="M152.78462,9.78569316 L166.493599,9.78569316 L166.883455,12.7575011 C168.390288,11.6578033 170.312129,10.7479863 172.646691,10.0343795 C174.982396,9.32088785 177.398131,8.96091979 179.893894,8.96091979 C184.515001,8.96091979 187.888798,10.1718993 190.019858,12.5938583 C192.150917,15.0159325 193.214161,18.7535932 193.214161,23.8201897 L193.214161,48.9108153 L178.572271,48.9108153 L178.572271,25.3846928 C178.572271,23.6238644 178.194992,22.3604087 177.441575,21.5879964 C176.688159,20.8155841 175.427129,20.4359375 173.660773,20.4359375 C172.573521,20.4359375 171.454258,20.6977429 170.312129,21.2214688 C169.168856,21.7450797 168.210794,22.4193293 167.426509,23.2441027 L167.426509,48.9108153 L152.78462,48.9108153 L152.78462,9.78569316 Z" id="Path" fill="#141414"></path>
            <polygon id="Path" fill="#141414" points="193.256462 9.78592332 208.522578 9.78592332 215.534267 32.7295143 222.5471 9.78592332 237.813216 9.78592332 223.244496 48.9110454 207.818322 48.9110454"></polygon>
            <path d="M242.42289,45.5461266 C238.023578,42.0505927 235.966831,35.9825761 235.966831,29.4300756 C235.966831,23.0477774 237.603997,17.7914151 241.341354,14.1583615 C245.078712,10.5254229 250.775638,8.96091979 257.966831,8.96091979 C264.582938,8.96091979 269.784828,10.5843435 273.585065,13.8310759 C277.378443,17.0779234 279.280848,21.5095123 279.280848,27.1193983 L279.280848,33.9729462 L251.436449,33.9729462 C252.128129,36.0086991 253.005019,37.4815991 255.161231,38.3914161 C257.317442,39.3013482 260.326535,39.7530344 264.175933,39.7530344 C266.473911,39.7530344 268.821049,39.5631536 271.205915,39.1769474 C272.04622,39.0395427 273.430723,38.8235389 274.158988,38.6598961 L274.158988,48.1710855 C270.519952,49.2184223 265.67019,49.7421482 260.203062,49.7421482 C252.844961,49.7355887 246.821059,49.0416605 242.42289,45.5461266 Z M263.896975,25.5548951 C263.896975,23.6173049 261.791067,19.4475214 257.558673,19.4475214 C253.740143,19.4475214 251.220371,23.5518248 251.220371,25.5548951 L263.896975,25.5548951 Z" id="Shape" fill="#141414"></path>
            <polygon id="Path" fill="#141414" points="290.777595 29.0178615 277.067473 9.78592332 292.957815 9.78592332 321 48.9110454 304.956459 48.9110454 298.722195 40.1591493 292.489074 48.9110454 276.517559 48.9110454"></polygon>
            <polygon id="Path" fill="#141414" points="304.603188 9.78592332 320.419218 9.78592332 308.279952 26.9166285 300.248463 15.9390986"></polygon>
            <path d="M35.7624613,45.713567 C44.1897505,44.7773968 52.1345789,40.2859667 56.5085103,32.7894707 C54.4375868,51.3310481 34.1670247,63.0507245 17.6212439,55.8551608 C16.0966902,55.1939151 14.7843279,54.0939871 13.8836579,52.6797776 C10.1653932,46.839733 8.9431207,39.4087171 10.6993014,32.6650699 C15.7171238,41.3269741 25.9199151,46.6367332 35.7624613,45.713567 Z" id="Path" fill="#F3B01C"></path>
            <path d="M10.3917611,27.2244657 C6.9757776,35.120402 6.82783816,44.3649526 11.0157592,51.9727303 C-3.72227927,40.8818473 -3.56153518,17.148352 10.8356938,6.16875063 C12.1672631,5.15398133 13.7497807,4.55165625 15.4095835,4.45993805 C22.2350339,4.0998549 29.1698955,6.73839319 34.0332618,11.6552715 C24.152073,11.7535493 14.5282349,18.0846372 10.3917611,27.2244657 Z" id="Path" fill="#8D2676"></path>
            <path d="M38.798764,14.0848258 C33.8130675,7.13173425 26.0097763,2.39806215 17.4602712,2.25409794 C33.9868449,-5.2489576 54.3152566,6.91561532 56.527946,24.9006693 C56.733735,26.5702398 56.4639227,28.2724929 55.7241112,29.7783056 C52.6362468,36.0504729 46.9107388,40.9151052 40.2204232,42.7155209 C45.1224321,33.621494 44.5176411,22.5109324 38.798764,14.0848258 Z" id="Path" fill="#EE342F"></path>
        </g>
    </g>
</svg>