<?xml version="1.0" encoding="UTF-8"?>
<svg width="358px" height="66px" viewBox="0 0 358 66" version="1.1" xmlns="http://www.w3.org/2000/svg" xmlns:xlink="http://www.w3.org/1999/xlink">
    <title>nozzle</title>
    <g id="partners" stroke="none" stroke-width="1" fill="none" fill-rule="evenodd">
        <g id="nozzle" transform="translate(0, -4)" fill="#0C6989" fill-rule="nonzero">
            <path d="M58.4319126,4.290443 L58.4319126,68.0916582 L21.8621714,49.7834581 L0,70 L0,6.19733584 L36.5697411,24.5084338 L58.4319126,4.290443 Z M2.85253576,40.2634839 L2.85253576,63.4838167 L19.4850583,48.1026102 L2.85253576,40.2634839 Z M2.85253576,10.8080752 L2.85253576,37.0814652 L55.5779227,63.4809187 L55.5779227,37.2060798 L2.85253576,10.8080752 Z M55.5779227,10.8080752 L38.9468543,26.1863836 L55.5779227,34.02551 L55.5779227,10.8080752 Z" id="Fill-3"></path>
            <g id="Group" transform="translate(77.5668, 11.4352)">
                <path d="M23.911531,42.1675692 L21.9432258,42.1675692 L21.9432258,25.4160692 C21.9432258,21.2955852 21.3643126,18.2822407 20.2040738,16.3760354 C19.0462473,14.4698303 17.1937247,13.5143209 14.6489184,13.5143209 C13.2595265,13.5143209 11.8990803,13.7670375 10.5651676,14.267657 C9.23607914,14.7682766 7.99865197,15.4614421 6.86253462,16.3471536 C5.72159302,17.2328651 4.72055544,18.2726133 3.85218552,19.4663984 C2.98140345,20.6601835 2.35424738,21.9694961 1.96830519,23.3943364 L1.96830519,42.1675692 L0,42.1675692 L0,12.1279898 L1.85493467,12.1279898 L1.85493467,19.637283 C2.47244218,18.4459047 3.25156298,17.35802 4.1995335,16.3760354 C5.14267973,15.394051 6.19437219,14.556476 7.3521988,13.8633105 C8.51243752,13.1701449 9.73780398,12.6310162 11.0307103,12.2459242 C12.3236167,11.8608323 13.6430566,11.6682863 14.9938542,11.6682863 C18.1609924,11.6682863 20.4356392,12.7946803 21.8250311,15.0474682 C23.214423,17.3002562 23.911531,20.6794381 23.911531,25.185014 L23.911531,42.1675692" id="Fill-4"></path>
                <path d="M32.8267957,27.3222743 C32.8267957,29.1683089 33.1524344,30.9228841 33.8109483,32.5763727 C34.4670501,34.2346749 35.352305,35.676363 36.4739495,36.9110641 C37.5907697,38.1433583 38.9126217,39.1157155 40.4370934,39.8281356 C41.961565,40.5405558 43.5728737,40.8967658 45.2734316,40.8967658 C46.9691651,40.8967658 48.5804738,40.5309284 50.1073573,39.7968469 C51.629417,39.067579 52.9633298,38.0855945 54.0994468,36.8533003 C55.2379766,35.621006 56.1473526,34.1672839 56.8203396,32.4921338 C57.4933262,30.8169838 57.8334377,29.0551881 57.8334377,27.2067467 C57.8334377,25.3558985 57.4933262,23.5965097 56.8203396,21.9213596 C56.1473526,20.2438028 55.2379766,18.7924875 54.0994468,17.5601932 C52.9633298,16.3254922 51.6390654,15.3459145 50.136303,14.6142398 C48.6311287,13.8825651 47.0270565,13.5143209 45.3289107,13.5143209 C43.630765,13.5143209 42.0291049,13.8825651 40.5239303,14.6142398 C39.0187558,15.3459145 37.6969038,16.3375262 36.5583743,17.5890751 C35.4198448,18.840624 34.5128807,20.3039734 33.839894,21.9791234 C33.162083,23.6518666 32.8267957,25.4353238 32.8267957,27.3222743 L32.8267957,27.3222743 Z M45.3289107,42.7452072 C43.2858292,42.7452072 41.3826517,42.3312333 39.6266148,41.5008788 C37.8729899,40.6753379 36.3364576,39.5585713 35.0266662,38.1529856 C33.7120506,36.7474 32.6893038,35.1011318 31.9584258,33.2141813 C31.2251356,31.3272307 30.8560784,29.3440071 30.8560784,27.2621037 C30.8560784,25.1465048 31.2347842,23.1440266 31.9849593,21.2546692 C32.7375466,19.3701254 33.769942,17.71423 35.0821454,16.2893898 C36.3943489,14.8645495 37.9284691,13.7381556 39.6869182,12.9102079 C41.4405431,12.0822602 43.3220112,11.6682863 45.3289107,11.6682863 C47.33581,11.6682863 49.226927,12.0822602 51.0022611,12.9102079 C52.7775952,13.7381556 54.323776,14.8645495 55.6335673,16.2893898 C56.9457709,17.71423 57.9805782,19.3701254 58.7331653,21.2546692 C59.4857529,23.1440266 59.8596344,25.1465048 59.8596344,27.2621037 C59.8596344,29.3440071 59.4857529,31.3272307 58.7331653,33.2141813 C57.9805782,35.1011318 56.9457709,36.7474 55.6335673,38.1529856 C54.323776,39.5585713 52.7775952,40.6753379 51.0022611,41.5008788 C49.226927,42.3312333 47.33581,42.7452072 45.3289107,42.7452072 L45.3289107,42.7452072 Z" id="Fill-5"></path>
                <polyline id="Fill-6" points="63.3331139 40.550183 85.5079052 13.8055467 63.6828743 13.8055467 63.6828743 12.1279898 87.8235585 12.1279898 87.8235585 13.7477829 65.7090705 40.4924192 87.6474724 40.4924192 87.6474724 42.1675692 63.3331139 42.1675692 63.3331139 40.550183"></polyline>
                <polyline id="Fill-7" points="91.3549295 40.550183 113.527308 13.8055467 91.7022776 13.8055467 91.7022776 12.1279898 115.842962 12.1279898 115.842962 13.7477829 93.7284738 40.4924192 115.669287 40.4924192 115.669287 42.1675692 91.3549295 42.1675692 91.3549295 40.550183"></polyline>
                <path d="M122.558356,0 L124.46877,0 L124.46877,37.0265917 C124.46877,38.1433583 124.816117,39.0290698 125.510814,39.6837261 C126.205509,40.3383825 127.112474,40.6657106 128.231706,40.6657106 C128.656242,40.6657106 129.165204,40.6175741 129.765826,40.5213012 C130.361625,40.4250282 130.914004,40.2806187 131.415729,40.0880727 L131.87886,41.7030521 C131.299946,41.8980049 130.576305,42.0712963 129.707935,42.225333 C128.839565,42.3793699 128.096626,42.4563883 127.479119,42.4563883 C126.012538,42.4563883 124.825766,42.0014984 123.918802,41.0965322 C123.011838,40.193973 122.558356,38.971306 122.558356,37.4309382 L122.558356,0" id="Fill-8"></path>
                <path d="M160.998198,26.3402899 C160.882416,24.4533392 160.477176,22.7204254 159.782481,21.1391416 C159.087784,19.5626714 158.171172,18.1955949 157.032642,17.0379123 C155.894113,15.8850432 154.591558,14.9897044 153.124978,14.3543027 C151.658397,13.718901 150.076034,13.4012001 148.377889,13.4012001 C146.679743,13.4012001 145.09738,13.7285283 143.6308,14.3831846 C142.164219,15.0378409 140.871313,15.9404002 139.752081,17.0980829 C138.632848,18.2533587 137.735532,19.6204352 137.060134,21.1993122 C136.384735,22.7781892 135.989144,24.4918484 135.875774,26.3402899 L160.998198,26.3402899 L160.998198,26.3402899 Z M148.551563,42.7452072 C146.506069,42.7452072 144.595655,42.3312333 142.820321,41.5008788 C141.044987,40.6753379 139.493982,39.5393167 138.160069,38.092815 C136.828568,36.651127 135.786525,34.975977 135.033937,33.067365 C134.28135,31.1635666 133.905056,29.1322065 133.905056,26.9756916 C133.905056,24.8576858 134.271701,22.8744622 135.004992,21.0260208 C135.738282,19.1775794 136.761028,17.5601932 138.073232,16.1738622 C139.385435,14.7875312 140.909907,13.6900191 142.646647,12.8813259 C144.383387,12.0726328 146.274504,11.6682863 148.319997,11.6682863 C150.365491,11.6682863 152.275905,12.0726328 154.051239,12.8813259 C155.826573,13.6900191 157.370342,14.7971584 158.682545,16.2027441 C159.994749,17.6083297 161.036792,19.2545978 161.811089,21.1391416 C162.580561,23.028499 162.966503,25.0309772 162.966503,27.148983 C162.966503,27.2260013 162.956855,27.3800381 162.937558,27.6110933 C162.918261,27.8421485 162.908612,27.9769307 162.908612,28.0154399 L135.931253,28.0154399 C136.047035,29.8638812 136.471572,31.5871677 137.204862,33.1828925 C137.938152,34.783431 138.874062,36.1601347 140.012592,37.3154106 C141.151121,38.4706865 142.453676,39.3852799 143.922668,40.0591908 C145.386837,40.7331017 146.949902,41.0700572 148.609454,41.0700572 C149.728686,41.0700572 150.818973,40.9256477 151.880314,40.6368287 C152.941655,40.3480098 153.935456,39.9340359 154.861717,39.3949072 C155.787979,38.8557784 156.598457,38.2107494 157.293153,37.4598201 C157.990262,36.7088908 158.547465,35.8905703 158.972002,35.0048589 L160.766633,35.4669692 C160.342097,36.5067175 159.71494,37.4814815 158.885165,38.3840408 C158.055389,39.2866001 157.09777,40.0591908 156.019544,40.6945925 C154.938906,41.3299943 153.761782,41.8306138 152.488173,42.1964512 C151.214564,42.5622885 149.90236,42.7452072 148.551563,42.7452072 L148.551563,42.7452072 Z" id="Fill-9"></path>
            </g>
            <g id=".io" transform="translate(244.9917, 0)" font-family="Raleway-Thin, Raleway" font-size="56.8918042" font-weight="300">
                <text>
                    <tspan x="0.0041734069" y="53">.io</tspan>
                </text>
            </g>
        </g>
    </g>
</svg>