<?xml version="1.0" encoding="UTF-8"?>
<svg width="358px" height="66px" viewBox="0 0 358 66" version="1.1" xmlns="http://www.w3.org/2000/svg" xmlns:xlink="http://www.w3.org/1999/xlink">
    <title>sentry</title>
    <g id="partners" stroke="none" stroke-width="1" fill="none" fill-rule="evenodd">
        <g id="sentry" transform="translate(0, 1)" fill="#362D59" fill-rule="nonzero">
            <path d="M41.84061,3.28404369 C40.6192694,1.24605754 38.4256051,0 36.0591038,0 C33.6926026,0 31.4989383,1.24605754 30.2775976,3.28404369 L20.7670199,19.6618714 C35.5514339,27.0831698 45.3153146,41.8278591 46.4224537,58.4048072 L39.744814,58.4048072 C38.6397851,44.1961333 30.1393664,31.6361074 17.3992926,25.3875716 L8.5969494,40.690014 C15.7499803,43.9154579 20.7776054,50.5805037 21.937775,58.3757427 L6.60232976,58.3757427 C6.23285763,58.3494661 5.90143479,58.1377514 5.72081334,57.8126252 C5.5401919,57.4874989 5.53469634,57.0927464 5.7061963,56.7626647 L9.95560336,49.4965478 C8.51591619,48.2888407 6.87052554,47.3533602 5.09913815,46.7354233 L0.893092391,54.0015403 C0.00861910382,55.5268696 -0.230867668,57.3449956 0.228202356,59.0492255 C0.68727238,60.7534555 1.80659046,62.2015739 3.33577876,63.0696543 C4.33322841,63.6347034 5.45747081,63.9347953 6.60232976,63.9415883 L27.603651,63.9415883 C28.3969712,54.0991069 24.010665,44.5567117 16.0406386,38.7862913 L19.3794585,32.9733977 C29.4411101,39.9215013 35.1023627,51.697836 34.2668369,63.9415883 L52.0594222,63.9415883 C52.9026382,45.3897656 43.8681133,27.7872299 28.3407931,17.7290843 L35.0907016,6.10329708 C35.4037627,5.5759192 36.0810912,5.40080347 36.6083469,5.71092676 C37.3743965,6.13236155 65.9350371,56.2395043 66.4698264,56.8207937 C66.6616002,57.1665286 66.6546688,57.5890169 66.4516581,57.9282044 C66.2486473,58.267392 65.8806094,58.4713975 65.4869704,58.4629361 L58.606978,58.4629361 C58.6937006,60.3133739 58.6937006,62.1589676 58.606978,63.9998604 L65.5158779,63.9998604 C67.2879205,64.0113795 68.9909538,63.3097704 70.2453608,62.0512832 C71.4997678,60.792796 72.201277,59.0820414 72.1935813,57.3003574 C72.1943779,56.1352749 71.8849526,54.9912105 71.2973841,53.9870081 L41.84061,3.28404369 Z M179.613903,41.0969165 L158.280145,13.3984785 L152.961159,13.3984785 L152.961159,50.5283364 L158.352414,50.5283364 L158.352414,22.0742222 L180.29323,50.5283364 L185.005157,50.5283364 L185.005157,13.3984785 L179.613903,13.3984785 L179.613903,41.0969165 Z M125.889256,34.2086376 L145.011588,34.2086376 L145.011588,29.3839359 L125.874803,29.3839359 L125.874803,18.208648 L147.454275,18.208648 L147.454275,13.3839463 L120.382372,13.3839463 L120.382372,50.5283364 L147.728896,50.5283364 L147.728896,45.7036347 L125.874803,45.7036347 L125.889256,34.2086376 Z M103.399197,29.5001938 L103.399197,29.5001938 C95.9555081,27.6981968 93.8741658,26.2740379 93.8741658,22.8153662 C93.8741658,19.7054681 96.6059275,17.5982942 100.681889,17.5982942 C104.393798,17.7075975 107.973986,19.0059061 110.900702,21.3040138 L113.791455,17.1913916 C110.086323,14.2711176 105.489874,12.7306502 100.783066,12.8317214 C93.4694604,12.8317214 88.3672812,17.1913916 88.3672812,23.3966555 C88.3672812,30.0814832 92.7034108,32.3921084 100.595167,34.3248955 C107.619697,35.9525057 109.773308,37.463858 109.773308,40.8498685 C109.773308,44.2358791 106.882555,46.3285207 102.416341,46.3285207 C97.9699264,46.3080417 93.6914577,44.6184598 90.4197159,41.5910125 L87.1676186,45.5001834 C91.3582457,49.1205177 96.7033275,51.1061496 102.228442,51.0951394 C110.149106,51.0951394 115.236831,46.8080845 115.236831,40.1813858 C115.19347,34.5719435 111.898011,31.563771 103.399197,29.5001938 Z M282.784881,13.3984785 L271.669935,30.8371593 L260.627258,13.3984785 L254.180879,13.3984785 L268.764728,35.85078 L268.764728,50.5428686 L274.314974,50.5428686 L274.314974,35.6763932 L289,13.3984785 L282.784881,13.3984785 Z M189.370194,18.4266315 L201.467996,18.4266315 L201.467996,50.5428686 L207.018242,50.5428686 L207.018242,18.4266315 L219.116044,18.4266315 L219.116044,13.3984785 L189.384648,13.3984785 L189.370194,18.4266315 Z M244.785931,36.0396991 C250.365085,34.4847501 253.458191,30.5610469 253.458191,24.9516046 C253.458191,17.8162777 248.269289,13.3258174 239.900559,13.3258174 L223.481081,13.3258174 L223.481081,50.5138041 L228.973512,50.5138041 L228.973512,37.1732133 L238.296191,37.1732133 L247.662231,50.5428686 L254.079703,50.5428686 L243.962067,36.2722148 L244.785931,36.0396991 Z M228.959058,32.4066406 L228.959058,18.3103736 L239.322408,18.3103736 C244.728116,18.3103736 247.821222,20.882579 247.821222,25.3439749 C247.821222,29.8053707 244.51131,32.4066406 239.380223,32.4066406 L228.959058,32.4066406 Z" id="Shape"></path>
        </g>
    </g>
</svg>